<svg width="150" height="16" viewBox="0 0 150 16" fill="none" xmlns="http://www.w3.org/2000/svg">
<path d="M0.66 15V0.999999H7.02C8.54 0.999999 9.88 1.29333 11.04 1.88C12.2 2.45333 13.1067 3.26 13.76 4.3C14.4133 5.34 14.74 6.57333 14.74 8C14.74 9.41333 14.4133 10.6467 13.76 11.7C13.1067 12.74 12.2 13.5533 11.04 14.14C9.88 14.7133 8.54 15 7.02 15H0.66ZM3.9 12.34H6.86C7.79333 12.34 8.6 12.1667 9.28 11.82C9.97333 11.46 10.5067 10.9533 10.88 10.3C11.2667 9.64667 11.46 8.88 11.46 8C11.46 7.10667 11.2667 6.34 10.88 5.7C10.5067 5.04667 9.97333 4.54667 9.28 4.2C8.6 3.84 7.79333 3.66 6.86 3.66H3.9V12.34ZM17.1834 15V0.999999H23.2434C24.4968 0.999999 25.5768 1.20667 26.4834 1.62C27.3901 2.02 28.0901 2.6 28.5834 3.36C29.0768 4.12 29.3234 5.02667 29.3234 6.08C29.3234 7.12 29.0768 8.02 28.5834 8.78C28.0901 9.52667 27.3901 10.1 26.4834 10.5C25.5768 10.9 24.4968 11.1 23.2434 11.1H18.9834L20.4234 9.68V15H17.1834ZM26.0834 15L22.5834 9.92H26.0434L29.5834 15H26.0834ZM20.4234 10.04L18.9834 8.52H23.0634C24.0634 8.52 24.8101 8.30667 25.3034 7.88C25.7968 7.44 26.0434 6.84 26.0434 6.08C26.0434 5.30667 25.7968 4.70667 25.3034 4.28C24.8101 3.85333 24.0634 3.64 23.0634 3.64H18.9834L20.4234 2.1V10.04ZM34.8705 6.64H41.6105V9.16H34.8705V6.64ZM35.1105 12.4H42.7305V15H31.8905V0.999999H42.4705V3.6H35.1105V12.4ZM43.4684 15L49.7084 0.999999H52.9084L59.1684 15H55.7684L50.6484 2.64H51.9284L46.7884 15H43.4684ZM46.5884 12L47.4484 9.54H54.6484L55.5284 12H46.5884ZM60.6209 15V0.999999H63.3009L69.2609 10.88H67.8409L73.7009 0.999999H76.3609L76.4009 15H73.3609L73.3409 5.66H73.9009L69.2209 13.52H67.7609L62.9809 5.66H63.6609V15H60.6209ZM84.3225 15.24C83.2025 15.24 82.1292 15.0933 81.1025 14.8C80.0758 14.4933 79.2492 14.1 78.6225 13.62L79.7225 11.18C80.3225 11.6067 81.0292 11.96 81.8425 12.24C82.6692 12.5067 83.5025 12.64 84.3425 12.64C84.9825 12.64 85.4958 12.58 85.8825 12.46C86.2825 12.3267 86.5758 12.1467 86.7625 11.92C86.9492 11.6933 87.0425 11.4333 87.0425 11.14C87.0425 10.7667 86.8958 10.4733 86.6025 10.26C86.3092 10.0333 85.9225 9.85333 85.4425 9.72C84.9625 9.57333 84.4292 9.44 83.8425 9.32C83.2692 9.18667 82.6892 9.02667 82.1025 8.84C81.5292 8.65333 81.0025 8.41333 80.5225 8.12C80.0425 7.82667 79.6492 7.44 79.3425 6.96C79.0492 6.48 78.9025 5.86667 78.9025 5.12C78.9025 4.32 79.1158 3.59333 79.5425 2.94C79.9825 2.27333 80.6358 1.74667 81.5025 1.36C82.3825 0.96 83.4825 0.76 84.8025 0.76C85.6825 0.76 86.5492 0.866666 87.4025 1.08C88.2558 1.28 89.0092 1.58667 89.6625 2L88.6625 4.46C88.0092 4.08667 87.3558 3.81333 86.7025 3.64C86.0492 3.45333 85.4092 3.36 84.7825 3.36C84.1558 3.36 83.6425 3.43333 83.2425 3.58C82.8425 3.72667 82.5558 3.92 82.3825 4.16C82.2092 4.38667 82.1225 4.65333 82.1225 4.96C82.1225 5.32 82.2692 5.61333 82.5625 5.84C82.8558 6.05333 83.2425 6.22667 83.7225 6.36C84.2025 6.49333 84.7292 6.62667 85.3025 6.76C85.8892 6.89333 86.4692 7.04667 87.0425 7.22C87.6292 7.39333 88.1625 7.62667 88.6425 7.92C89.1225 8.21333 89.5092 8.6 89.8025 9.08C90.1092 9.56 90.2625 10.1667 90.2625 10.9C90.2625 11.6867 90.0425 12.4067 89.6025 13.06C89.1625 13.7133 88.5025 14.24 87.6225 14.64C86.7558 15.04 85.6558 15.24 84.3225 15.24ZM102.076 0.999999H105.316V15H102.076V0.999999ZM95.7164 15H92.4764V0.999999H95.7164V15ZM102.316 9.26H95.4764V6.52H102.316V9.26ZM106.789 15L113.029 0.999999H116.229L122.489 15H119.089L113.969 2.64H115.249L110.109 15H106.789ZM109.909 12L110.769 9.54H117.969L118.849 12H109.909ZM123.941 15V0.999999H130.001C131.255 0.999999 132.335 1.20667 133.241 1.62C134.148 2.02 134.848 2.6 135.341 3.36C135.835 4.12 136.081 5.02667 136.081 6.08C136.081 7.12 135.835 8.02 135.341 8.78C134.848 9.52667 134.148 10.1 133.241 10.5C132.335 10.9 131.255 11.1 130.001 11.1H125.741L127.181 9.68V15H123.941ZM132.841 15L129.341 9.92H132.801L136.341 15H132.841ZM127.181 10.04L125.741 8.52H129.821C130.821 8.52 131.568 8.30667 132.061 7.88C132.555 7.44 132.801 6.84 132.801 6.08C132.801 5.30667 132.555 4.70667 132.061 4.28C131.568 3.85333 130.821 3.64 129.821 3.64H125.741L127.181 2.1V10.04ZM141.628 6.64H148.368V9.16H141.628V6.64ZM141.868 12.4H149.488V15H138.648V0.999999H149.228V3.6H141.868V12.4Z" fill="white"/>
</svg>
